<svg width="595" height="325" viewBox="0 0 595 325" fill="none" xmlns="http://www.w3.org/2000/svg">
<path d="M108.528 147.688L120.528 145.766V155.188L120.153 168.266C121.309 168.078 122.403 167.875 123.434 167.656L126.481 166.906C127.481 166.656 128.465 166.375 129.434 166.062L132.528 164.984C133.997 160.328 134.731 154.641 134.731 147.922C134.731 145.422 134.606 143.844 134.356 143.188C130.231 141.875 122.7 141.062 111.762 140.75C108.95 140.688 106.34 140.609 103.934 140.516L105.715 129.453C120.465 130.016 131.262 131.109 138.106 132.734C139.2 133.016 140.465 133.875 141.903 135.312C144.622 138.031 146.09 140.219 146.309 141.875C146.559 143.5 146.684 145.812 146.684 148.812C146.684 151.781 146.294 155.344 145.512 159.5C144.731 163.656 143.465 167.781 141.715 171.875C141.028 173.5 139.465 174.5 137.028 174.875L120.434 177.828L119.872 190.906L109.372 191.938L108.528 147.688ZM168.34 163.25C168.34 170.781 168.731 177.312 169.512 182.844L178.747 182.375C180.434 175.688 181.278 169.156 181.278 162.781C181.278 160.219 181.106 157.938 180.762 155.938C178.887 155 172.262 154.531 160.887 154.531H158.497C157.84 154.531 157.122 154.562 156.34 154.625L158.356 143.75C158.887 143.719 159.372 143.688 159.809 143.656C160.278 143.594 160.747 143.562 161.215 143.562L162.622 143.469C163.09 143.469 164.403 143.469 166.559 143.469C172.747 143.469 179.528 144.297 186.903 145.953C189.247 146.547 190.684 147.594 191.215 149.094C192.028 151.406 192.434 155.172 192.434 160.391C192.434 169.922 190.981 179.141 188.075 188.047C187.825 188.859 187.528 189.547 187.184 190.109C186.872 190.672 186.309 191.031 185.497 191.188C184.684 191.375 183.731 191.547 182.637 191.703C181.544 191.859 180.465 192 179.403 192.125C177.09 192.344 175.497 192.453 174.622 192.453C173.747 192.453 172.809 192.438 171.809 192.406C170.809 192.406 169.715 192.375 168.528 192.312C165.403 192.156 163.294 191.875 162.2 191.469C161.106 191.094 160.356 190.438 159.95 189.5C159.575 188.562 159.2 187.062 158.825 185C157.95 180.188 157.512 174.703 157.512 168.547C157.512 166.203 157.575 163.875 157.7 161.562L168.34 159.453V163.25ZM203.825 146.188L213.809 144.922L215.45 152.047L223.7 144.922H235.231C235.825 144.922 236.653 145.375 237.715 146.281C239.497 147.75 240.387 149.062 240.387 150.219L238.747 191.094L228.294 191.938L228.106 155.75C227.731 155.625 227.215 155.562 226.559 155.562C225.903 155.562 225.294 155.594 224.731 155.656C224.2 155.719 223.622 155.812 222.997 155.938C221.528 156.188 220.325 156.484 219.387 156.828L215.919 158.094L214.653 190.625L204.669 191.375L203.825 146.188ZM252.762 133.766L264.2 131.562V146.281L275.965 144.078L276.856 154.719L264.387 155.656L263.497 181.016C265.809 181.734 267.809 182.297 269.497 182.703C273.715 183.703 276.294 184.328 277.231 184.578L274.747 194.375C267.809 192.844 261.731 191.078 256.512 189.078C254.387 188.297 253.325 186.891 253.325 184.859L252.762 133.766ZM297.247 163.25C297.247 170.781 297.637 177.312 298.419 182.844L307.653 182.375C309.34 175.688 310.184 169.156 310.184 162.781C310.184 160.219 310.012 157.938 309.669 155.938C307.794 155 301.169 154.531 289.794 154.531H287.403C286.747 154.531 286.028 154.562 285.247 154.625L287.262 143.75C287.794 143.719 288.278 143.688 288.715 143.656C289.184 143.594 289.653 143.562 290.122 143.562L291.528 143.469C291.997 143.469 293.309 143.469 295.465 143.469C301.653 143.469 308.434 144.297 315.809 145.953C318.153 146.547 319.59 147.594 320.122 149.094C320.934 151.406 321.34 155.172 321.34 160.391C321.34 169.922 319.887 179.141 316.981 188.047C316.731 188.859 316.434 189.547 316.09 190.109C315.778 190.672 315.215 191.031 314.403 191.188C313.59 191.375 312.637 191.547 311.544 191.703C310.45 191.859 309.372 192 308.309 192.125C305.997 192.344 304.403 192.453 303.528 192.453C302.653 192.453 301.715 192.438 300.715 192.406C299.715 192.406 298.622 192.375 297.434 192.312C294.309 192.156 292.2 191.875 291.106 191.469C290.012 191.094 289.262 190.438 288.856 189.5C288.481 188.562 288.106 187.062 287.731 185C286.856 180.188 286.419 174.703 286.419 168.547C286.419 166.203 286.481 163.875 286.606 161.562L297.247 159.453V163.25ZM334.512 147.312L345.481 145.391L345.762 154.25V159.594L359.309 157.109C361.215 154.078 362.169 150.625 362.169 146.75C362.169 145.719 362.075 144.75 361.887 143.844C354.2 141.688 343.325 140.609 329.262 140.609L330.95 129.453C344.856 129.641 356.762 130.797 366.669 132.922C368.137 133.297 369.762 134.906 371.544 137.75C373.231 140.438 374.075 142.312 374.075 143.375C374.075 144.438 373.997 145.562 373.84 146.75C373.684 147.906 373.45 149.156 373.137 150.5C371.981 155.469 370.731 158.562 369.387 159.781C368.512 160.594 366.044 161.625 361.981 162.875L361.887 163.25L371.215 167.469C371.653 169.344 371.872 171.203 371.872 173.047C371.872 174.859 371.762 176.453 371.544 177.828C371.325 179.203 371.059 180.5 370.747 181.719C369.684 185.531 368.544 187.844 367.325 188.656C365.387 189.938 358.028 191.156 345.247 192.312C341.278 192.656 338.153 192.859 335.872 192.922L334.512 147.312ZM346.419 183.031C352.2 182.531 356.419 181.859 359.075 181.016C360.044 177.828 360.528 175.438 360.528 173.844C360.528 172.219 360.481 171 360.387 170.188C360.325 169.344 360.059 168.734 359.59 168.359L346.137 167L346.419 183.031ZM384.622 124.109L396.247 121.953L396.575 155.75L395.122 191L385.231 191.844L384.622 124.109ZM419.497 163.25C419.497 170.781 419.887 177.312 420.669 182.844L429.903 182.375C431.59 175.688 432.434 169.156 432.434 162.781C432.434 160.219 432.262 157.938 431.919 155.938C430.044 155 423.419 154.531 412.044 154.531H409.653C408.997 154.531 408.278 154.562 407.497 154.625L409.512 143.75C410.044 143.719 410.528 143.688 410.965 143.656C411.434 143.594 411.903 143.562 412.372 143.562L413.778 143.469C414.247 143.469 415.559 143.469 417.715 143.469C423.903 143.469 430.684 144.297 438.059 145.953C440.403 146.547 441.84 147.594 442.372 149.094C443.184 151.406 443.59 155.172 443.59 160.391C443.59 169.922 442.137 179.141 439.231 188.047C438.981 188.859 438.684 189.547 438.34 190.109C438.028 190.672 437.465 191.031 436.653 191.188C435.84 191.375 434.887 191.547 433.794 191.703C432.7 191.859 431.622 192 430.559 192.125C428.247 192.344 426.653 192.453 425.778 192.453C424.903 192.453 423.965 192.438 422.965 192.406C421.965 192.406 420.872 192.375 419.684 192.312C416.559 192.156 414.45 191.875 413.356 191.469C412.262 191.094 411.512 190.438 411.106 189.5C410.731 188.562 410.356 187.062 409.981 185C409.106 180.188 408.669 174.703 408.669 168.547C408.669 166.203 408.731 163.875 408.856 161.562L419.497 159.453V163.25ZM467.59 181.109C471.715 181.109 474.95 180.953 477.294 180.641L477.106 160.672L487.559 158.75C487.684 164.781 487.778 169.938 487.84 174.219C487.934 178.469 488.012 182.047 488.075 184.953C488.137 187.859 488.184 190.172 488.215 191.891L488.309 195.875C488.309 196.781 488.309 197.375 488.309 197.656V198.219C488.309 199.812 487.122 201.453 484.747 203.141C477.497 208.234 470.106 212.766 462.575 216.734L456.856 206.469C467.075 201.688 474.184 198.141 478.184 195.828L477.481 185.141L470.778 191H462.997C460.778 191 459.309 190.25 458.59 188.75L457.934 187.344C455.09 180.5 453.669 171.75 453.669 161.094C453.669 155 454.122 151.156 455.028 149.562C455.372 148.938 456.387 148.375 458.075 147.875C459.794 147.344 461.934 146.781 464.497 146.188C467.09 145.562 469.715 144.984 472.372 144.453C475.028 143.922 477.684 143.422 480.34 142.953L488.075 141.547L490.372 152.328L475.606 154.625C470.169 155.5 466.794 156.172 465.481 156.641C465.169 157.891 465.012 159.625 465.012 161.844C465.012 169.844 465.872 176.266 467.59 181.109Z" fill="#172b4d"/>
<path d="M409.783 98.6625L421.071 109.95" stroke="#172b4d" stroke-width="0.2" stroke-linecap="round"/>
<path d="M435.812 87.773V106.63" stroke="#172b4d" stroke-width="0.2" stroke-linecap="round"/>
<path d="M449.888 110.349L462.106 98.1313" stroke="#172b4d" stroke-width="0.2" stroke-linecap="round"/>
</svg>
