<svg width="595" height="325" viewBox="0 0 595 325" fill="none" xmlns="http://www.w3.org/2000/svg">
<path d="M186.762 181.203L187.747 181.109C188.778 180.953 189.825 180.812 190.887 180.688C191.981 180.531 193.106 180.344 194.262 180.125C197.044 179.656 199.247 179.156 200.872 178.625C202.934 170.094 203.965 161.156 203.965 151.812C203.965 148.312 203.794 145.281 203.45 142.719C194.95 141.125 184.169 140.328 171.106 140.328H169.84L171.95 128.984H172.934C184.809 128.984 195.137 129.938 203.919 131.844C205.606 132.188 206.856 132.516 207.669 132.828C208.512 133.141 209.34 133.672 210.153 134.422C210.965 135.172 211.762 136 212.544 136.906C214.356 139.125 215.325 140.812 215.45 141.969C215.7 144.281 215.825 146.875 215.825 149.75C215.825 152.625 215.7 155.656 215.45 158.844C215.2 162.031 214.825 165.172 214.325 168.266C213.294 174.984 211.903 180.484 210.153 184.766C209.778 185.734 209.356 186.438 208.887 186.875C208.45 187.281 207.544 187.719 206.169 188.188C204.794 188.625 203.09 189.047 201.059 189.453C199.059 189.859 196.825 190.203 194.356 190.484C189.762 191.016 183.637 191.469 175.981 191.844V146.938L187.512 144.453L187.7 154.531L186.762 181.203ZM258.715 194.375C245.84 193.062 235.747 191.109 228.434 188.516C227.09 188.016 226.2 185.141 225.762 179.891C225.387 175.078 225.794 170.906 226.981 167.375C227.481 165.906 228.075 165.094 228.762 164.938C231.7 164.156 234.794 163.594 238.044 163.25L247.794 162.172L247.606 155.562C244.2 154.906 240.809 154.391 237.434 154.016C234.09 153.609 230.762 153.141 227.45 152.609L229.934 142.344L237.856 143.516C245.106 144.578 250.872 145.875 255.153 147.406C257.215 148.156 258.247 149.672 258.247 151.953L258.434 177.641L248.45 178.625L248.169 170.609L245.497 171.125C242.497 171.625 239.637 172.25 236.919 173C236.575 174.656 236.403 176.031 236.403 177.125C236.403 178.719 236.465 179.953 236.59 180.828C240.997 181.828 247.794 182.844 256.981 183.875L260.825 184.297L258.715 194.375ZM269.45 145.016L280.559 142.719L281.45 180.547C282.762 180.984 283.778 181.203 284.497 181.203C285.247 181.203 285.872 181.203 286.372 181.203C286.903 181.172 287.512 181.094 288.2 180.969C289.919 180.625 291.731 179.969 293.637 179L294.012 145.484L304.653 144.172L305.215 196.906C305.215 198.5 304.2 200.016 302.169 201.453C296.981 205.047 293.169 207.609 290.731 209.141L283.981 213.312C281.856 214.531 279.778 215.672 277.747 216.734L272.028 206.469C283.278 201.219 290.965 197.344 295.09 194.844L294.387 183.312L287.403 191H275.403C274.465 190.906 273.512 190.453 272.544 189.641C271.044 188.422 270.294 187.109 270.294 185.703L269.45 145.016ZM317.637 124.109L329.262 121.953L329.59 155.75L328.137 191L318.247 191.844L317.637 124.109ZM352.512 163.25C352.512 170.781 352.903 177.312 353.684 182.844L362.919 182.375C364.606 175.688 365.45 169.156 365.45 162.781C365.45 160.219 365.278 157.938 364.934 155.938C363.059 155 356.434 154.531 345.059 154.531H342.669C342.012 154.531 341.294 154.562 340.512 154.625L342.528 143.75C343.059 143.719 343.544 143.688 343.981 143.656C344.45 143.594 344.919 143.562 345.387 143.562L346.794 143.469C347.262 143.469 348.575 143.469 350.731 143.469C356.919 143.469 363.7 144.297 371.075 145.953C373.419 146.547 374.856 147.594 375.387 149.094C376.2 151.406 376.606 155.172 376.606 160.391C376.606 169.922 375.153 179.141 372.247 188.047C371.997 188.859 371.7 189.547 371.356 190.109C371.044 190.672 370.481 191.031 369.669 191.188C368.856 191.375 367.903 191.547 366.809 191.703C365.715 191.859 364.637 192 363.575 192.125C361.262 192.344 359.669 192.453 358.794 192.453C357.919 192.453 356.981 192.438 355.981 192.406C354.981 192.406 353.887 192.375 352.7 192.312C349.575 192.156 347.465 191.875 346.372 191.469C345.278 191.094 344.528 190.438 344.122 189.5C343.747 188.562 343.372 187.062 342.997 185C342.122 180.188 341.684 174.703 341.684 168.547C341.684 166.203 341.747 163.875 341.872 161.562L352.512 159.453V163.25ZM400.606 181.109C404.731 181.109 407.965 180.953 410.309 180.641L410.122 160.672L420.575 158.75C420.7 164.781 420.794 169.938 420.856 174.219C420.95 178.469 421.028 182.047 421.09 184.953C421.153 187.859 421.2 190.172 421.231 191.891L421.325 195.875C421.325 196.781 421.325 197.375 421.325 197.656V198.219C421.325 199.812 420.137 201.453 417.762 203.141C410.512 208.234 403.122 212.766 395.59 216.734L389.872 206.469C400.09 201.688 407.2 198.141 411.2 195.828L410.497 185.141L403.794 191H396.012C393.794 191 392.325 190.25 391.606 188.75L390.95 187.344C388.106 180.5 386.684 171.75 386.684 161.094C386.684 155 387.137 151.156 388.044 149.562C388.387 148.938 389.403 148.375 391.09 147.875C392.809 147.344 394.95 146.781 397.512 146.188C400.106 145.562 402.731 144.984 405.387 144.453C408.044 143.922 410.7 143.422 413.356 142.953L421.09 141.547L423.387 152.328L408.622 154.625C403.184 155.5 399.809 156.172 398.497 156.641C398.184 157.891 398.028 159.625 398.028 161.844C398.028 169.844 398.887 176.266 400.606 181.109Z" fill="black"/>
<path d="M381 113.89L392.288 125.177" stroke="black" stroke-width="2" stroke-linecap="round"/>
<path d="M407.029 103V121.857" stroke="black" stroke-width="2" stroke-linecap="round"/>
<path d="M421.105 125.576L433.323 113.358" stroke="black" stroke-width="2" stroke-linecap="round"/>
</svg>
