<svg width="131" height="19" viewBox="0 0 131 19" fill="none" xmlns="http://www.w3.org/2000/svg">
<path d="M0.368 1.2H6.032V13.608H13.616V18H0.368V1.2ZM23.7541 18.384C21.9461 18.384 20.3221 18.008 18.8821 17.256C17.4421 16.504 16.3141 15.464 15.4981 14.136C14.6821 12.792 14.2741 11.28 14.2741 9.6C14.2741 7.92 14.6821 6.416 15.4981 5.088C16.3141 3.744 17.4421 2.696 18.8821 1.944C20.3221 1.192 21.9461 0.816 23.7541 0.816C25.5621 0.816 27.1861 1.192 28.6261 1.944C30.0661 2.696 31.1941 3.744 32.0101 5.088C32.8261 6.416 33.2341 7.92 33.2341 9.6C33.2341 11.28 32.8261 12.792 32.0101 14.136C31.1941 15.464 30.0661 16.504 28.6261 17.256C27.1861 18.008 25.5621 18.384 23.7541 18.384ZM23.7541 13.8C24.4581 13.8 25.0901 13.632 25.6501 13.296C26.2261 12.944 26.6821 12.456 27.0181 11.832C27.3541 11.192 27.5221 10.448 27.5221 9.6C27.5221 8.752 27.3541 8.016 27.0181 7.392C26.6821 6.752 26.2261 6.264 25.6501 5.928C25.0901 5.576 24.4581 5.4 23.7541 5.4C23.0501 5.4 22.4101 5.576 21.8341 5.928C21.2741 6.264 20.8261 6.752 20.4901 7.392C20.1541 8.016 19.9861 8.752 19.9861 9.6C19.9861 10.448 20.1541 11.192 20.4901 11.832C20.8261 12.456 21.2741 12.944 21.8341 13.296C22.4101 13.632 23.0501 13.8 23.7541 13.8ZM46.4019 9.144H51.3219V16.248C50.3299 16.936 49.1779 17.464 47.8659 17.832C46.5539 18.2 45.2659 18.384 44.0019 18.384C42.2099 18.384 40.6019 18.016 39.1779 17.28C37.7539 16.528 36.6339 15.488 35.8179 14.16C35.0179 12.816 34.6179 11.296 34.6179 9.6C34.6179 7.904 35.0179 6.392 35.8179 5.064C36.6339 3.72 37.7619 2.68 39.2019 1.944C40.6579 1.192 42.2979 0.816 44.1219 0.816C45.7699 0.816 47.2419 1.096 48.5379 1.656C49.8499 2.2 50.9379 3 51.8019 4.056L48.1779 7.248C47.1219 6.016 45.8659 5.4 44.4099 5.4C43.1619 5.4 42.1699 5.776 41.4339 6.528C40.6979 7.28 40.3299 8.304 40.3299 9.6C40.3299 10.864 40.6899 11.88 41.4099 12.648C42.1459 13.416 43.1219 13.8 44.3379 13.8C45.0579 13.8 45.7459 13.664 46.4019 13.392V9.144ZM67.1752 9.216C68.1672 9.584 68.9352 10.12 69.4792 10.824C70.0232 11.528 70.2952 12.376 70.2952 13.368C70.2952 14.84 69.6872 15.984 68.4712 16.8C67.2552 17.6 65.4952 18 63.1912 18H53.7352V1.2H62.7112C64.9512 1.2 66.6392 1.6 67.7752 2.4C68.9272 3.2 69.5032 4.264 69.5032 5.592C69.5032 6.376 69.3032 7.08 68.9032 7.704C68.5192 8.328 67.9432 8.832 67.1752 9.216ZM59.3032 5.16V7.656H61.9432C63.1752 7.656 63.7912 7.24 63.7912 6.408C63.7912 5.576 63.1752 5.16 61.9432 5.16H59.3032ZM62.7112 14.04C63.9592 14.04 64.5832 13.6 64.5832 12.72C64.5832 11.84 63.9592 11.4 62.7112 11.4H59.3032V14.04H62.7112ZM81.1057 18.384C79.2977 18.384 77.6737 18.008 76.2337 17.256C74.7937 16.504 73.6657 15.464 72.8497 14.136C72.0337 12.792 71.6257 11.28 71.6257 9.6C71.6257 7.92 72.0337 6.416 72.8497 5.088C73.6657 3.744 74.7937 2.696 76.2337 1.944C77.6737 1.192 79.2977 0.816 81.1057 0.816C82.9137 0.816 84.5377 1.192 85.9777 1.944C87.4177 2.696 88.5457 3.744 89.3617 5.088C90.1777 6.416 90.5857 7.92 90.5857 9.6C90.5857 11.28 90.1777 12.792 89.3617 14.136C88.5457 15.464 87.4177 16.504 85.9777 17.256C84.5377 18.008 82.9137 18.384 81.1057 18.384ZM81.1057 13.8C81.8097 13.8 82.4417 13.632 83.0017 13.296C83.5777 12.944 84.0337 12.456 84.3697 11.832C84.7057 11.192 84.8737 10.448 84.8737 9.6C84.8737 8.752 84.7057 8.016 84.3697 7.392C84.0337 6.752 83.5777 6.264 83.0017 5.928C82.4417 5.576 81.8097 5.4 81.1057 5.4C80.4017 5.4 79.7617 5.576 79.1857 5.928C78.6257 6.264 78.1777 6.752 77.8417 7.392C77.5057 8.016 77.3377 8.752 77.3377 9.6C77.3377 10.448 77.5057 11.192 77.8417 11.832C78.1777 12.456 78.6257 12.944 79.1857 13.296C79.7617 13.632 80.4017 13.8 81.1057 13.8ZM101.449 18.384C99.6414 18.384 98.0174 18.008 96.5774 17.256C95.1374 16.504 94.0094 15.464 93.1934 14.136C92.3774 12.792 91.9694 11.28 91.9694 9.6C91.9694 7.92 92.3774 6.416 93.1934 5.088C94.0094 3.744 95.1374 2.696 96.5774 1.944C98.0174 1.192 99.6414 0.816 101.449 0.816C103.257 0.816 104.881 1.192 106.321 1.944C107.761 2.696 108.889 3.744 109.705 5.088C110.521 6.416 110.929 7.92 110.929 9.6C110.929 11.28 110.521 12.792 109.705 14.136C108.889 15.464 107.761 16.504 106.321 17.256C104.881 18.008 103.257 18.384 101.449 18.384ZM101.449 13.8C102.153 13.8 102.785 13.632 103.345 13.296C103.921 12.944 104.377 12.456 104.713 11.832C105.049 11.192 105.217 10.448 105.217 9.6C105.217 8.752 105.049 8.016 104.713 7.392C104.377 6.752 103.921 6.264 103.345 5.928C102.785 5.576 102.153 5.4 101.449 5.4C100.745 5.4 100.105 5.576 99.5294 5.928C98.9694 6.264 98.5214 6.752 98.1854 7.392C97.8494 8.016 97.6814 8.752 97.6814 9.6C97.6814 10.448 97.8494 11.192 98.1854 11.832C98.5214 12.456 98.9694 12.944 99.5294 13.296C100.105 13.632 100.745 13.8 101.449 13.8ZM119.825 12.432L118.553 13.848V18H112.985V1.2H118.553V7.296L124.073 1.2H130.241L123.521 8.592L130.577 18H124.025L119.825 12.432Z" fill="black"/>
</svg>
