<svg width="653" height="120" viewBox="0 0 653 120" fill="none" xmlns="http://www.w3.org/2000/svg">
<path d="M0.833001 3.19999H50.513C61.745 3.19999 71.633 5.264 80.177 9.392C88.817 13.424 95.489 19.232 100.193 26.816C104.993 34.4 107.393 43.328 107.393 53.6C107.393 63.872 104.993 72.8 100.193 80.384C95.489 87.968 88.817 93.824 80.177 97.952C71.633 101.984 61.745 104 50.513 104H0.833001V3.19999ZM49.073 77.504C56.369 77.504 62.177 75.44 66.497 71.312C70.913 67.088 73.121 61.184 73.121 53.6C73.121 46.016 70.913 40.16 66.497 36.032C62.177 31.808 56.369 29.696 49.073 29.696H34.817V77.504H49.073ZM168.618 0.895997C178.41 0.895997 187.05 2.864 194.538 6.8C202.026 10.64 207.834 16.304 211.962 23.792C216.186 31.184 218.298 40.016 218.298 50.288V104H184.314V83.696H152.346V104H118.938V50.288C118.938 40.016 121.002 31.184 125.13 23.792C129.354 16.304 135.21 10.64 142.698 6.8C150.186 2.864 158.826 0.895997 168.618 0.895997ZM184.314 58.064V47.408C184.314 41.168 182.826 36.464 179.85 33.296C176.97 30.032 173.13 28.4 168.33 28.4C163.53 28.4 159.642 30.032 156.666 33.296C153.786 36.464 152.346 41.168 152.346 47.408V58.064H184.314ZM328.799 3.19999V70.736C328.799 81.104 326.687 89.984 322.463 97.376C318.239 104.768 312.239 110.336 304.463 114.08C296.687 117.92 287.519 119.84 276.959 119.84C267.839 119.84 259.535 118.736 252.047 116.528C244.655 114.416 238.223 111.44 232.751 107.6L245.135 83.552C249.839 86.528 254.783 88.832 259.967 90.464C265.247 92 270.383 92.768 275.375 92.768C282.287 92.768 287.231 91.184 290.207 88.016C293.279 84.752 294.815 79.616 294.815 72.608V69.728C288.383 77.024 279.791 80.672 269.039 80.672C256.367 80.672 246.671 77.12 239.951 70.016C233.327 62.816 230.015 52.4 230.015 38.768V3.19999H263.999V36.32C263.999 41.984 265.199 46.208 267.599 48.992C270.095 51.776 273.887 53.168 278.975 53.168C283.775 53.168 287.615 51.776 290.495 48.992C293.375 46.112 294.815 41.504 294.815 35.168V3.19999H328.799ZM344.38 3.19999H378.364V77.648H423.868V104H344.38V3.19999ZM484.697 106.304C473.849 106.304 464.105 104.048 455.465 99.536C446.825 95.024 440.057 88.784 435.161 80.816C430.265 72.752 427.817 63.68 427.817 53.6C427.817 43.52 430.265 34.496 435.161 26.528C440.057 18.464 446.825 12.176 455.465 7.664C464.105 3.152 473.849 0.895997 484.697 0.895997C495.545 0.895997 505.289 3.152 513.929 7.664C522.569 12.176 529.337 18.464 534.233 26.528C539.129 34.496 541.577 43.52 541.577 53.6C541.577 63.68 539.129 72.752 534.233 80.816C529.337 88.784 522.569 95.024 513.929 99.536C505.289 104.048 495.545 106.304 484.697 106.304ZM484.697 78.8C488.921 78.8 492.713 77.792 496.073 75.776C499.529 73.664 502.265 70.736 504.281 66.992C506.297 63.152 507.305 58.688 507.305 53.6C507.305 48.512 506.297 44.096 504.281 40.352C502.265 36.512 499.529 33.584 496.073 31.568C492.713 29.456 488.921 28.4 484.697 28.4C480.473 28.4 476.633 29.456 473.177 31.568C469.817 33.584 467.129 36.512 465.113 40.352C463.097 44.096 462.089 48.512 462.089 53.6C462.089 58.688 463.097 63.152 465.113 66.992C467.129 70.736 469.817 73.664 473.177 75.776C476.633 77.792 480.473 78.8 484.697 78.8ZM620.583 50.864H650.103V104H627.927V97.808C621.207 103.472 612.183 106.304 600.855 106.304C591.351 106.304 582.711 104.288 574.935 100.256C567.255 96.224 561.159 90.368 556.647 82.688C552.135 74.912 549.879 65.648 549.879 54.896C549.879 44.336 552.279 34.976 557.079 26.816C561.975 18.56 568.743 12.176 577.383 7.664C586.023 3.152 595.863 0.895997 606.903 0.895997C616.791 0.895997 625.623 2.576 633.399 5.93599C641.271 9.2 647.799 14 652.983 20.336L631.239 39.488C624.903 32.096 617.367 28.4 608.631 28.4C601.047 28.4 595.047 30.704 590.631 35.312C586.311 39.92 584.151 46.352 584.151 54.608C584.151 62.864 586.119 69.056 590.055 73.184C594.087 77.312 599.271 79.376 605.607 79.376C611.463 79.376 616.455 77.936 620.583 75.056V50.864Z" fill="white"/>
</svg>
